<?xml version="1.0" encoding="utf-8"?>
<!-- Uploaded to: SVG Repo, www.svgrepo.com, Generator: SVG Repo Mixer Tools -->
<svg fill="#000000" height="800px" width="800px" version="1.1" id="Layer_1" xmlns="http://www.w3.org/2000/svg" xmlns:xlink="http://www.w3.org/1999/xlink" 
	 viewBox="0 0 216 256" xml:space="preserve">
<path d="M213.3,151.6l-19.9-52.4c0,0-2.1-20.8-4-28.8C181.1,34.6,141.1,2,97.7,2C44.9,2.1,2.1,45,2.1,97.8c0,29.3,13.5,57,36.5,75.1
	V254h102v-27.2h15c20.8,0,37.7-16.9,37.7-37.7c0,0,0,0,0,0v-26.8h12.7c4.3,0,7.8-3.5,7.8-7.8c0,0,0,0,0,0
	C213.9,153.5,213.7,152.6,213.3,151.6z M96.6,142.1c-25.3-0.1-46.7-20.8-46.4-46.6C50.2,70.3,70.8,49,96.7,49.2s46.7,20.8,46.4,46.6
	C143,121,122.4,142.4,96.6,142.1z M120.9,106.9c-2.2-1-4.8,0-5.7,2.2c0,0,0,0.1,0,0.1c-3.3,7.3-10.2,12-18.1,11.8
	c-7.9-0.2-15-4.9-18.3-12.1c-1.6-2.3-4-3.4-6.2-2.6c-2.1,0.9-3.2,3.4-2.3,5.5c5.1,11,15.2,17.5,26.5,17.6
	c11.4,0.1,21.7-6.5,26.5-16.8C124.4,110.3,123.3,108.1,120.9,106.9z M114.7,93c4.6,0.2,7.9-3.2,8.1-7.8s-3.2-7.9-7.8-8.1
	s-7.9,3.2-8.1,7.8S110.1,92.8,114.7,93z M79.4,93c4.6,0.2,7.9-3.2,8.1-7.8s-3.2-7.9-7.8-8.1c-4.4,0-7.9,3.6-7.9,8
	C71.9,89.3,75.2,92.8,79.4,93z"/>
</svg>