<?xml version="1.0" encoding="utf-8"?>

<!DOCTYPE svg PUBLIC "-//W3C//DTD SVG 1.1//EN" "http://www.w3.org/Graphics/SVG/1.1/DTD/svg11.dtd">
<!-- Uploaded to: SVG Repo, www.svgrepo.com, Generator: SVG Repo Mixer Tools -->
<svg height="800px" width="800px" version="1.1" id="_x32_" xmlns="http://www.w3.org/2000/svg" xmlns:xlink="http://www.w3.org/1999/xlink" 
	 viewBox="0 0 512 512"  xml:space="preserve">
<style type="text/css">
	.st0{fill:#000000;}
</style>
<g>
	<path class="st0" d="M381.528,65.567L256,0L130.446,65.576L26.693,37.056v30.088c0,0,0,132.998,0,229.307
		c0,15.236,3.18,30.043,8.465,44.034c9.306,24.507,24.893,46.756,43.282,66.866c27.652,30.105,61.841,55.464,93.64,73.871
		c15.918,9.191,31.217,16.607,45.136,21.919c6.969,2.66,13.598,4.792,19.957,6.332c6.387,1.513,12.45,2.508,18.828,2.526
		c9.666-0.072,18.838-2.203,29.049-5.428c17.7-5.714,38.051-15.335,59.441-28.028c31.986-19.07,65.971-44.956,92.968-75.536
		c13.481-15.309,25.224-31.834,33.823-49.606c8.572-17.754,14.018-36.931,14.026-56.951c0-48.154,0-105.481,0-150.77
		c0-22.644,0-42.279,0-56.252c0-13.973,0-22.268,0-22.268V37.056L381.528,65.567z M439.446,296.451
		c0,8.832-1.836,18.112-5.508,27.821c-6.369,16.965-18.524,35.041-34.19,52.096c-23.432,25.618-54.523,48.871-82.756,65.138
		c-14.099,8.15-27.5,14.582-38.544,18.783c-5.509,2.105-10.426,3.646-14.376,4.596c-3.923,0.968-6.924,1.272-8.071,1.254
		c-1.8,0.072-7.676-0.806-15.02-3.225c-13.025-4.165-31.073-12.486-50.018-23.781c-28.493-16.912-59.316-40.621-82.004-66.436
		c-11.367-12.89-20.683-26.263-26.934-39.242c-6.289-13.006-9.477-25.43-9.468-37.003c0-48.154,0-105.481,0-150.77
		c0-18.73,0-35.345,0-48.459l63.14,17.35L256,51.737l120.288,62.836l8.697-2.391l54.461-14.959
		C439.446,142.028,439.446,228.375,439.446,296.451z"/>
	<path class="st0" d="M256,103.69l-106.036,55.374l-31.548-8.67v142.832c0,48.621,103.162,119.106,137.584,124.929
		c34.424-5.823,137.584-76.308,137.584-124.929V150.394l-31.574,8.67L256,103.69z"/>
</g>
</svg>